<svg id="Capa_1" data-name="Capa 1" xmlns="http://www.w3.org/2000/svg" viewBox="0 0 1080 1080"><defs><style>.cls-1{fill:#fff;}</style></defs><path class="cls-1" d="M426.22,571V567c0-6.76-2.16-8.07-17.93-12.49-17.36-4.78-24-8.82-24-21.77v-1.13c0-13.7,9.49-21.12,28.07-21.12,19.24,0,26.47,5.73,26.47,17.55v8.17H425.19V520.38H407.64c-7.61,0-9.67,1.59-9.67,6.94V531c0,6.57,2.06,7.89,18,12.3,17.27,4.79,23.94,8.73,23.94,21.87v1.22c0,14-9.48,21.4-28.63,21.4-20.09,0-27.13-6.1-27.13-18.11v-7.79h13.61v16h18.4C424.25,577.92,426.22,576.23,426.22,571Z"/><path class="cls-1" d="M479,587.77c-17.84,0-26-7.13-26-19.43v-23c0-12.29,8.35-19.42,25.44-19.42,16.52,0,25.34,6.66,25.34,17.74v15.77H465.08v11.63c0,5.64,2.53,7.42,9.38,7.42h16.81V564.59h12.29v6C503.56,581.77,496.71,587.77,479,587.77Zm12.67-45.33c0-5.45-2.16-7.23-9.29-7.23h-8c-7,0-9.29,1.69-9.29,7.13v8.83h26.56Z"/><path class="cls-1" d="M537.91,538.4v39.05h11.92v8.82h-35.2v-8.82h10.8v-41.3h-10.8v-8.83h23v7.61a18.75,18.75,0,0,1,15.77-7.79h5.25V538.4Z"/><path class="cls-1" d="M619.38,536.15,606.8,586.46H586.9l-12.76-50.31h-9.95v-8.83h20.93l11.64,50.41h1.41L610,527.32h19.43v8.83Z"/><path class="cls-1" d="M635.51,586.27v-8.82h10.8v-41.3h-10.8v-8.83h23.28v50.13H669.5v8.82Zm9.86-64.3v-10H658.7v10Z"/><path class="cls-1" d="M699.43,538.4v39.05h11.92v8.82h-35.2v-8.82H687v-41.3h-10.8v-8.83h23v7.61a18.76,18.76,0,0,1,15.77-7.79h5.26V538.4Z"/><path class="cls-1" d="M754.72,587.77c-17.84,0-26-7.13-26-19.43v-23c0-12.29,8.36-19.42,25.44-19.42,16.52,0,25.35,6.66,25.35,17.74v15.77H740.82v11.63c0,5.64,2.54,7.42,9.39,7.42H767V564.59h12.3v6C779.31,581.77,772.46,587.77,754.72,587.77Zm12.67-45.33c0-5.45-2.16-7.23-9.3-7.23h-8c-7,0-9.3,1.69-9.3,7.13v8.83h26.57Z"/><path class="cls-1" d="M836.84,586.27V544.13c0-5.73-1-7.23-8.26-7.23H813.66v49.37H790.38v-8.82h10.79v-41.3H790.38v-8.83h23v6.2c4.32-4.51,10-6.95,17.09-6.95,12.67,0,19,6.76,19,17.46v33.42h10.8v8.82Z"/><path class="cls-1" d="M889.49,586.27c-10.89,0-15.11-4.13-15.11-15.3V536.15H863.59v-8.83h10.89V514.56h12.39v12.76h13.32v8.83H887v41.2h13.23v8.92Z"/><path class="cls-1" d="M909.48,571.16v-.85c0-8.73,1.88-13,14.27-16.8l22.71-6.85v-5.07c0-5.07-2.25-6.38-8.16-6.38H923.37v12h-12.2V541c0-9.48,7.6-15.11,23.18-15.11,15.78,0,24.5,6.57,24.5,17.17v34.36h10.8v8.82h-22.9v-5.91c-3.57,4.22-10.33,6.85-17.75,6.85C915.58,587.21,909.48,581.58,909.48,571.16Zm37-15.21-17.36,5.26c-5.82,1.69-7,3.38-7,7.13v3.1c0,4.69,1.32,6.29,8.07,6.29h16.24Z"/><path class="cls-1" d="M976,586.27v-8.82h10.8V520.66H976v-8.73h23.47v65.52h10.79v8.82Z"/><path class="cls-1" d="M265.05,519.18a7.73,7.73,0,0,0,1.78,6.49c1.35,1.55,3.46,1.91,8.7,2.48,4.75.52,10.66,1.17,16.44,4.32,12.17,6.65,18.62,21.49,15,34.52-2.47,8.88-13,22.27-36,22.27a78.73,78.73,0,0,1-21-3.13c-17.18-4.76-31-13.7-43.59-23.71v45.91H343.05V546.25c-15.34-12.4-31.22-25.14-49.37-30.16C274,510.64,265.81,516.45,265.05,519.18Z"/><path class="cls-1" d="M206.38,471.67v60.65c16.3,14.1,30.46,26.25,49.75,31.59,19.67,5.45,27.87-.35,28.63-3.09s-1-6.57-3.84-8.11c-1.77-1-4.61-1.28-7.89-1.64-6.82-.74-16.17-1.76-23.57-10.25A30.44,30.44,0,0,1,242.84,513c3.12-11.22,19-29.65,57-19.14,16.45,4.56,30.31,13.29,43.22,23V471.67Z"/></svg>