<svg id="Capa_1" data-name="Capa 1" xmlns="http://www.w3.org/2000/svg" viewBox="0 0 1080 1080"><defs><style>.cls-1{fill:#af5013;}.cls-2{fill:#e8b919;}</style></defs><rect class="cls-1" width="1080" height="1080"/><path class="cls-2" d="M357.89,571V567c0-6.76-2.16-8.07-17.93-12.49-17.36-4.78-24-8.82-24-21.77v-1.13c0-13.7,9.48-21.12,28.07-21.12,19.24,0,26.47,5.73,26.47,17.55v8.17H356.86V520.38H339.3c-7.6,0-9.67,1.59-9.67,6.94V531c0,6.57,2.07,7.89,18,12.3,17.27,4.79,23.93,8.73,23.93,21.87v1.22c0,14-9.48,21.4-28.63,21.4-20.08,0-27.12-6.1-27.12-18.11v-7.79h13.61v16h18.4C355.92,577.92,357.89,576.23,357.89,571Z"/><path class="cls-2" d="M410.63,587.77c-17.83,0-26-7.13-26-19.43v-23c0-12.29,8.36-19.42,25.44-19.42,16.52,0,25.35,6.66,25.35,17.74v15.77H396.74v11.63c0,5.64,2.54,7.42,9.39,7.42h16.8V564.59h12.3v6C435.23,581.77,428.38,587.77,410.63,587.77Zm12.68-45.33c0-5.45-2.16-7.23-9.3-7.23h-8c-7,0-9.3,1.69-9.3,7.13v8.83h26.57Z"/><path class="cls-2" d="M469.58,538.4v39.05H481.5v8.82H446.3v-8.82h10.79v-41.3H446.3v-8.83h23v7.61a18.76,18.76,0,0,1,15.77-7.79h5.26V538.4Z"/><path class="cls-2" d="M551,536.15l-12.57,50.31h-19.9L505.8,536.15h-9.95v-8.83h20.93l11.64,50.41h1.41l11.83-50.41h19.43v8.83Z"/><path class="cls-2" d="M567.18,586.27v-8.82H578v-41.3h-10.8v-8.83h23.28v50.13h10.7v8.82ZM577,522v-10h13.33v10Z"/><path class="cls-2" d="M631.1,538.4v39.05H643v8.82h-35.2v-8.82h10.79v-41.3H607.82v-8.83h23v7.61a18.75,18.75,0,0,1,15.77-7.79h5.25V538.4Z"/><path class="cls-2" d="M686.38,587.77c-17.83,0-26-7.13-26-19.43v-23c0-12.29,8.35-19.42,25.44-19.42,16.52,0,25.34,6.66,25.34,17.74v15.77H672.49v11.63c0,5.64,2.54,7.42,9.39,7.42h16.8V564.59H711v6C711,581.77,704.12,587.77,686.38,587.77Zm12.68-45.33c0-5.45-2.16-7.23-9.3-7.23h-8c-7,0-9.29,1.69-9.29,7.13v8.83h26.57Z"/><path class="cls-2" d="M768.51,586.27V544.13c0-5.73-1-7.23-8.26-7.23H745.32v49.37H722v-8.82h10.8v-41.3H722v-8.83h23v6.2c4.32-4.51,10-6.95,17.08-6.95,12.68,0,19,6.76,19,17.46v33.42h10.79v8.82Z"/><path class="cls-2" d="M821.16,586.27c-10.89,0-15.11-4.13-15.11-15.3V536.15h-10.8v-8.83h10.89V514.56h12.39v12.76h13.33v8.83H818.62v41.2h13.24v8.92Z"/><path class="cls-2" d="M841.15,571.16v-.85c0-8.73,1.87-13,14.26-16.8l22.72-6.85v-5.07c0-5.07-2.25-6.38-8.17-6.38H855v12h-12.2V541c0-9.48,7.6-15.11,23.18-15.11,15.77,0,24.5,6.57,24.5,17.17v34.36h10.8v8.82H878.41v-5.91c-3.56,4.22-10.32,6.85-17.74,6.85C847.25,587.21,841.15,581.58,841.15,571.16Zm37-15.21-17.36,5.26c-5.83,1.69-6.95,3.38-6.95,7.13v3.1c0,4.69,1.31,6.29,8.07,6.29h16.24Z"/><path class="cls-2" d="M907.69,586.27v-8.82h10.79V520.66H907.69v-8.73h23.46v65.52H942v8.82Z"/><path class="cls-2" d="M196.72,519.18a7.72,7.72,0,0,0,1.77,6.49c1.36,1.55,3.47,1.91,8.7,2.48,4.75.52,10.66,1.17,16.45,4.32,12.17,6.65,18.61,21.49,15,34.52-2.46,8.88-12.94,22.27-36,22.27a78.67,78.67,0,0,1-21-3.13c-17.19-4.76-31-13.7-43.59-23.71v45.91H274.72V546.25c-15.35-12.4-31.22-25.14-49.37-30.16C205.67,510.64,197.48,516.45,196.72,519.18Z"/><path class="cls-2" d="M138.05,471.67v60.65c16.29,14.1,30.45,26.25,49.74,31.59,19.68,5.45,27.87-.35,28.63-3.09s-1-6.57-3.83-8.11c-1.78-1-4.61-1.28-7.89-1.64-6.83-.74-16.17-1.76-23.58-10.25A30.46,30.46,0,0,1,174.51,513c3.11-11.22,19-29.65,57-19.14,16.45,4.56,30.31,13.29,43.22,23V471.67Z"/></svg>