<?xml version="1.0" encoding="UTF-8"?> <svg xmlns="http://www.w3.org/2000/svg" id="enterprise" width="19.883" height="19.883" viewBox="0 0 19.883 19.883"><defs><style> .cls-1{fill:#707070} </style></defs><g id="Grupo_370" data-name="Grupo 370" transform="translate(6.959 6.628)"><g id="Grupo_369" data-name="Grupo 369"><path id="Rectángulo_1292" d="M0 0h.663v.663H0z" class="cls-1" data-name="Rectángulo 1292"></path></g></g><g id="Grupo_372" data-name="Grupo 372" transform="translate(6.959 7.953)"><g id="Grupo_371" data-name="Grupo 371"><path id="Rectángulo_1293" d="M0 0h.663v.663H0z" class="cls-1" data-name="Rectángulo 1293"></path></g></g><g id="Grupo_374" data-name="Grupo 374" transform="translate(6.959 9.279)"><g id="Grupo_373" data-name="Grupo 373"><path id="Rectángulo_1294" d="M0 0h.663v.663H0z" class="cls-1" data-name="Rectángulo 1294"></path></g></g><g id="Grupo_376" data-name="Grupo 376" transform="translate(6.959 10.604)"><g id="Grupo_375" data-name="Grupo 375"><path id="Rectángulo_1295" d="M0 0h.663v.663H0z" class="cls-1" data-name="Rectángulo 1295"></path></g></g><g id="Grupo_378" data-name="Grupo 378" transform="translate(8.285 6.628)"><g id="Grupo_377" data-name="Grupo 377"><path id="Rectángulo_1296" d="M0 0h.663v.663H0z" class="cls-1" data-name="Rectángulo 1296"></path></g></g><g id="Grupo_380" data-name="Grupo 380" transform="translate(8.285 7.953)"><g id="Grupo_379" data-name="Grupo 379"><path id="Rectángulo_1297" d="M0 0h.663v.663H0z" class="cls-1" data-name="Rectángulo 1297"></path></g></g><g id="Grupo_382" data-name="Grupo 382" transform="translate(8.285 9.279)"><g id="Grupo_381" data-name="Grupo 381"><path id="Rectángulo_1298" d="M0 0h.663v.663H0z" class="cls-1" data-name="Rectángulo 1298"></path></g></g><g id="Grupo_384" data-name="Grupo 384" transform="translate(8.285 10.604)"><g id="Grupo_383" data-name="Grupo 383"><path id="Rectángulo_1299" d="M0 0h.663v.663H0z" class="cls-1" data-name="Rectángulo 1299"></path></g></g><g id="Grupo_386" data-name="Grupo 386" transform="translate(9.61 6.628)"><g id="Grupo_385" data-name="Grupo 385"><path id="Rectángulo_1300" d="M0 0h.663v.663H0z" class="cls-1" data-name="Rectángulo 1300"></path></g></g><g id="Grupo_388" data-name="Grupo 388" transform="translate(9.61 7.953)"><g id="Grupo_387" data-name="Grupo 387"><path id="Rectángulo_1301" d="M0 0h.663v.663H0z" class="cls-1" data-name="Rectángulo 1301"></path></g></g><g id="Grupo_390" data-name="Grupo 390" transform="translate(9.61 9.279)"><g id="Grupo_389" data-name="Grupo 389"><path id="Rectángulo_1302" d="M0 0h.663v.663H0z" class="cls-1" data-name="Rectángulo 1302"></path></g></g><g id="Grupo_392" data-name="Grupo 392" transform="translate(9.61 10.604)"><g id="Grupo_391" data-name="Grupo 391"><path id="Rectángulo_1303" d="M0 0h.663v.663H0z" class="cls-1" data-name="Rectángulo 1303"></path></g></g><g id="Grupo_394" data-name="Grupo 394" transform="translate(10.936 6.628)"><g id="Grupo_393" data-name="Grupo 393"><path id="Rectángulo_1304" d="M0 0h.663v.663H0z" class="cls-1" data-name="Rectángulo 1304"></path></g></g><g id="Grupo_396" data-name="Grupo 396" transform="translate(8.285 5.302)"><g id="Grupo_395" data-name="Grupo 395"><path id="Rectángulo_1305" d="M0 0h.663v.663H0z" class="cls-1" data-name="Rectángulo 1305"></path></g></g><g id="Grupo_398" data-name="Grupo 398" transform="translate(9.61 5.302)"><g id="Grupo_397" data-name="Grupo 397"><path id="Rectángulo_1306" d="M0 0h.663v.663H0z" class="cls-1" data-name="Rectángulo 1306"></path></g></g><g id="Grupo_400" data-name="Grupo 400" transform="translate(10.936 5.302)"><g id="Grupo_399" data-name="Grupo 399"><path id="Rectángulo_1307" d="M0 0h.663v.663H0z" class="cls-1" data-name="Rectángulo 1307"></path></g></g><g id="Grupo_402" data-name="Grupo 402" transform="translate(10.936 7.953)"><g id="Grupo_401" data-name="Grupo 401"><path id="Rectángulo_1308" d="M0 0h.663v.663H0z" class="cls-1" data-name="Rectángulo 1308"></path></g></g><g id="Grupo_404" data-name="Grupo 404" transform="translate(10.936 9.279)"><g id="Grupo_403" data-name="Grupo 403"><path id="Rectángulo_1309" d="M0 0h.663v.663H0z" class="cls-1" data-name="Rectángulo 1309"></path></g></g><g id="Grupo_406" data-name="Grupo 406" transform="translate(10.936 10.604)"><g id="Grupo_405" data-name="Grupo 405"><path id="Rectángulo_1310" d="M0 0h.663v.663H0z" class="cls-1" data-name="Rectángulo 1310"></path></g></g><g id="Grupo_408" data-name="Grupo 408" transform="translate(12.261 6.628)"><g id="Grupo_407" data-name="Grupo 407"><path id="Rectángulo_1311" d="M0 0h.663v.663H0z" class="cls-1" data-name="Rectángulo 1311"></path></g></g><g id="Grupo_410" data-name="Grupo 410" transform="translate(12.261 7.953)"><g id="Grupo_409" data-name="Grupo 409"><path id="Rectángulo_1312" d="M0 0h.663v.663H0z" class="cls-1" data-name="Rectángulo 1312"></path></g></g><g id="Grupo_412" data-name="Grupo 412" transform="translate(12.261 9.279)"><g id="Grupo_411" data-name="Grupo 411"><path id="Rectángulo_1313" d="M0 0h.663v.663H0z" class="cls-1" data-name="Rectángulo 1313"></path></g></g><g id="Grupo_414" data-name="Grupo 414" transform="translate(12.261 10.604)"><g id="Grupo_413" data-name="Grupo 413"><path id="Rectángulo_1314" d="M0 0h.663v.663H0z" class="cls-1" data-name="Rectángulo 1314"></path></g></g><g id="Grupo_416" data-name="Grupo 416"><g id="Grupo_415" data-name="Grupo 415"><path id="Trazado_240" d="M19.552 4.971h-4.971V.331A.331.331 0 0 0 14.25 0H5.633A.331.331 0 0 0 5.3.331v4.64H.331A.331.331 0 0 0 0 5.3v11.93a.331.331 0 0 0 .331.331h.693a1.989 1.989 0 0 0-.03.331v1.657a.331.331 0 0 0 .331.331h17.232a.331.331 0 0 0 .331-.331v-1.654a1.98 1.98 0 0 0-.03-.331h.693a.331.331 0 0 0 .331-.331V5.3a.331.331 0 0 0-.33-.329zm-5.3 9.279a.663.663 0 1 1-.663-.663.663.663 0 0 1 .66.662zM6.3 13.587a.663.663 0 1 1-.663.663.663.663 0 0 1 .663-.663zM4.308 19.22H1.657v-1.325a1.326 1.326 0 0 1 2.651 0zM2.32 15.244a.663.663 0 1 1 .663.663.663.663 0 0 1-.663-.663zm2.038 1.219a2 2 0 0 0-.417-.309 1.326 1.326 0 1 0-1.918 0 2 2 0 0 0-.76.747h-.6V5.633H5.3v7.748a1.307 1.307 0 0 0 .035 1.778 1.994 1.994 0 0 0-.977 1.303zm3.264 2.757H4.971V16.9a1.326 1.326 0 1 1 2.651 0zm3.977 0H8.285V16.9a1.657 1.657 0 1 1 3.314 0zm-2.652-5.633a.994.994 0 1 1 .994.994.994.994 0 0 1-.994-.994zm3.012 2.174a2.334 2.334 0 0 0-.951-.918 1.657 1.657 0 1 0-2.135 0 2.334 2.334 0 0 0-.951.918 2 2 0 0 0-.668-.6 1.316 1.316 0 0 0-1.29-2.189V.663h7.953v12.308a1.32 1.32 0 0 0-1.29 2.189 2 2 0 0 0-.667.601zm2.953 2.133v1.326h-2.651V16.9a1.326 1.326 0 1 1 2.651 0zm3.314 1.326h-2.651v-1.325a1.326 1.326 0 0 1 2.651 0zm-1.988-3.977a.663.663 0 1 1 .663.663.663.663 0 0 1-.663-.662zM19.22 16.9h-.6a2 2 0 0 0-.76-.747 1.326 1.326 0 1 0-1.918 0 2 2 0 0 0-.417.309 1.994 1.994 0 0 0-.979-1.3 1.307 1.307 0 0 0 .035-1.778V5.633h4.639V16.9z" class="cls-1" data-name="Trazado 240"></path></g></g><g id="Grupo_418" data-name="Grupo 418" transform="translate(15.575 7.622)"><g id="Grupo_417" data-name="Grupo 417"><path id="Rectángulo_1315" d="M0 0h.663v5.302H0z" class="cls-1" data-name="Rectángulo 1315"></path></g></g><g id="Grupo_420" data-name="Grupo 420" transform="translate(17.563 7.622)"><g id="Grupo_419" data-name="Grupo 419"><path id="Rectángulo_1316" d="M0 0h.663v5.302H0z" class="cls-1" data-name="Rectángulo 1316"></path></g></g><g id="Grupo_422" data-name="Grupo 422" transform="translate(1.657 7.622)"><g id="Grupo_421" data-name="Grupo 421"><path id="Rectángulo_1317" d="M0 0h.663v5.302H0z" class="cls-1" data-name="Rectángulo 1317"></path></g></g><g id="Grupo_424" data-name="Grupo 424" transform="translate(3.645 7.622)"><g id="Grupo_423" data-name="Grupo 423"><path id="Rectángulo_1318" d="M0 0h.663v5.302H0z" class="cls-1" data-name="Rectángulo 1318"></path></g></g><g id="Grupo_426" data-name="Grupo 426" transform="translate(7.622 1.326)"><g id="Grupo_425" data-name="Grupo 425"><path id="Trazado_241" d="M188.308 32h-3.977a.331.331 0 0 0-.331.331v2.651a.331.331 0 0 0 .331.331h3.977a.331.331 0 0 0 .331-.331v-2.651a.331.331 0 0 0-.331-.331zm-.332 2.651h-3.314v-1.988h3.314z" class="cls-1" data-name="Trazado 241" transform="translate(-184 -32)"></path></g></g></svg> 