<?xml version="1.0" encoding="UTF-8"?> <svg xmlns="http://www.w3.org/2000/svg" id="factory" width="21.428" height="24.36" viewBox="0 0 21.428 24.36"><defs><style> .cls-1{fill:#707070} </style></defs><g id="Grupo_432" data-name="Grupo 432" transform="translate(0 6.055)"><g id="Grupo_431" data-name="Grupo 431"><path id="Trazado_244" d="M45.8 119.949h-1.653v-10.406a.373.373 0 0 0-.378-.378h-.662l-1.041-6.481a.346.346 0 0 0-.331-.284h-2.129a.316.316 0 0 0-.331.284l-1.041 6.481H36.91v-2.791a.479.479 0 0 0-.189-.331.357.357 0 0 0-.378.047l-4.115 3.075v-2.791a.479.479 0 0 0-.189-.331.357.357 0 0 0-.378.047l-4.115 3.075h-.568a.373.373 0 0 0-.378.378v10.407h-1.422a.378.378 0 1 0 0 .757H45.85a.373.373 0 0 0 .378-.378.5.5 0 0 0-.428-.38zm-5.91-16.839h1.51l.993 6.055h-3.449zm-3.69 3.973v2.081h-2.791zm-4.683 0v2.081h-2.791zm.52 12.866h-2.365v-4.541h2.365zm3.075 0h-2.365v-4.541h2.365zm8.278 0h-7.521v-4.872a.373.373 0 0 0-.378-.378h-6.2a.373.373 0 0 0-.378.378V120H27.26v-10.126h16.13z" class="cls-1" data-name="Trazado 244" transform="translate(-24.8 -102.4)"></path></g></g><g id="Grupo_434" data-name="Grupo 434" transform="translate(13.576)"><g id="Grupo_433" data-name="Grupo 433"><path id="Trazado_245" d="M258.09 1.7v-.139a1.561 1.561 0 1 0-3.122 0V1.7a1.752 1.752 0 0 0-.568 1.135 1.38 1.38 0 0 0 .71 1.135 1.527 1.527 0 0 0 .378.993.424.424 0 0 0 .52.047.424.424 0 0 0 .047-.52.754.754 0 0 1-.189-.568v-.09a.43.43 0 0 0-.189-.378c-.331-.189-.568-.426-.568-.615 0-.237.236-.473.568-.662a.382.382 0 0 0 .189-.426.514.514 0 0 1-.047-.237.851.851 0 1 1 1.7 0 .514.514 0 0 1-.047.237.382.382 0 0 0 .189.426c.378.189.568.426.568.662s-.189.473-.568.615a.322.322 0 0 0-.189.378v.095a.763.763 0 0 1-.284.615.371.371 0 0 0 0 .52c.047.095.142.095.237.095a.361.361 0 0 0 .237-.095 1.54 1.54 0 0 0 .473-1.088 1.338 1.338 0 0 0 .71-1.135 1.335 1.335 0 0 0-.755-1.139z" class="cls-1" data-name="Trazado 245" transform="translate(-254.4)"></path></g></g><g id="Grupo_436" data-name="Grupo 436" transform="translate(4.588 15.326)"><g id="Grupo_435" data-name="Grupo 435"><path id="Trazado_246" d="M105.144 259.2h-2.365a.378.378 0 0 0 0 .757h2.365a.378.378 0 0 0 0-.757z" class="cls-1" data-name="Trazado 246" transform="translate(-102.4 -259.2)"></path></g></g><g id="Grupo_438" data-name="Grupo 438" transform="translate(8.562 15.326)"><g id="Grupo_437" data-name="Grupo 437"><path id="Trazado_247" d="M172.344 259.2h-2.365a.378.378 0 0 0 0 .757h2.365a.373.373 0 0 0 .378-.378c-.047-.19-.189-.379-.378-.379z" class="cls-1" data-name="Trazado 247" transform="translate(-169.6 -259.2)"></path></g></g><g id="Grupo_440" data-name="Grupo 440" transform="translate(12.488 15.279)"><g id="Grupo_439" data-name="Grupo 439"><path id="Trazado_248" d="M238.744 258.4h-2.365a.373.373 0 0 0-.378.378c.047.237.189.378.378.378h2.365a.378.378 0 0 0 0-.757z" class="cls-1" data-name="Trazado 248" transform="translate(-236 -258.4)"></path></g></g><g id="Grupo_442" data-name="Grupo 442" transform="translate(12.346 18.354)"><g id="Grupo_441" data-name="Grupo 441"><path id="Trazado_249" d="M237.29 310.4h-3.311a.373.373 0 0 0-.378.378v2.46a.373.373 0 0 0 .378.378h3.311a.373.373 0 0 0 .378-.378v-2.46c-.047-.189-.189-.378-.378-.378zm-.378 2.46h-2.6v-1.75h2.6z" class="cls-1" data-name="Trazado 249" transform="translate(-233.6 -310.4)"></path></g></g></svg> 