<?xml version="1.0" encoding="UTF-8"?> <svg xmlns="http://www.w3.org/2000/svg" id="jigsaw" width="19.991" height="20.296" viewBox="0 0 19.991 20.296"><defs><style> .cls-1{fill:#707070} </style></defs><g id="Grupo_428" data-name="Grupo 428"><g id="Grupo_427" data-name="Grupo 427"><path id="Trazado_242" d="M17.985 0H5.99a2.335 2.335 0 0 0-2.332 2.332V14.3a2.335 2.335 0 0 0 2.332 2.332h3.665v-.666H5.99A1.668 1.668 0 0 1 4.324 14.3V8.663h2.14a.359.359 0 0 0 .305-.494 1.333 1.333 0 1 1 2.44 0 .346.346 0 0 0 .305.494h2.14v2a1.95 1.95 0 0 0-.333-.028 2 2 0 0 0-.8 3.832l.267-.61a1.333 1.333 0 0 1 .533-2.555 1.317 1.317 0 0 1 .533.113.333.333 0 0 0 .466-.305V8.663h1.694a1.95 1.95 0 0 0-.027.337 2 2 0 0 0 1.6 1.959l.133-.653A1.337 1.337 0 0 1 14.653 9a1.316 1.316 0 0 1 .113-.533.333.333 0 0 0-.305-.467h-2.14V6.3a1.951 1.951 0 0 0 .333.028 2 2 0 1 0 0-4 1.951 1.951 0 0 0-.333.028V.666h5.664a1.668 1.668 0 0 1 1.666 1.666V8h-2.14a.333.333 0 0 0-.305.466 1.317 1.317 0 0 1 .113.534h.666a1.951 1.951 0 0 0-.028-.333h2.027a.333.333 0 0 0 .333-.333v-6A2.335 2.335 0 0 0 17.985 0zm-5.331 3a1.333 1.333 0 1 1 0 2.666 1.317 1.317 0 0 1-.533-.113.333.333 0 0 0-.466.305v2.111H9.963a1.945 1.945 0 0 0 .026-.306v-.027a2 2 0 0 0-4 0v.028a1.946 1.946 0 0 0 .026.306H4.324V2.332A1.668 1.668 0 0 1 5.99.666h5.664v2.14a.333.333 0 0 0 .466.305A1.317 1.317 0 0 1 12.654 3z" class="cls-1" data-name="Trazado 242" transform="translate(-3.658)"></path></g></g><g id="Grupo_430" data-name="Grupo 430" transform="translate(6.493 9.301)"><g id="Grupo_429" data-name="Grupo 429"><path id="Trazado_243" d="M172.348 228.337l-2.8-1.929-1.076-2.874a.333.333 0 0 0-.428-.2l-.018.007-2.166.958a.333.333 0 0 0-.177.424c.036.093.07.164.105.237a2.535 2.535 0 0 1 .109.25 1.333 1.333 0 1 1-2.577.4.333.333 0 0 0-.45-.329l-2.315.872a.333.333 0 0 0-.195.428l.831 2.22a1.879 1.879 0 0 0-.323.089 2 2 0 1 0 1.708 3.609l.6 1.591a.333.333 0 0 0 .429.2l3.3-1.244a1.789 1.789 0 0 0 1.055.942l.211-.633a1.123 1.123 0 0 1-.637-.544l1-.378a2.325 2.325 0 0 0 2.194 1.546v-.666a1.676 1.676 0 0 1-1.666-1.666.333.333 0 0 0-.1-.236l-1.16-1.16a.494.494 0 0 1-.046-.643.485.485 0 0 1 .358-.2.478.478 0 0 1 .383.143l2.326 2.326.471-.471-.688-.688a2.324 2.324 0 0 0-.03-1.558l-.624-1.668 2.013 1.386a1 1 0 0 1 .426.819v4.3h.666v-4.3a1.669 1.669 0 0 0-.709-1.36zm-2.393 1.062a1.67 1.67 0 0 1 .1.767l-1.082-1.081a1.158 1.158 0 0 0-1.658 1.617l.021.021 1.054 1.054-4.709 1.774-.635-1.7a.333.333 0 0 0-.24-.208.337.337 0 0 0-.072-.008.333.333 0 0 0-.233.095 1.333 1.333 0 1 1-1.4-2.212 1.282 1.282 0 0 1 .33-.075 1.183 1.183 0 0 1 .209-.007.333.333 0 0 0 .33-.449l-.87-2.324 1.587-.6a2 2 0 1 0 3.834-1.086 2.037 2.037 0 0 0-.085-.2l1.533-.679z" class="cls-1" data-name="Trazado 243" transform="translate(-159.563 -223.316)"></path></g></g></svg> 