<?xml version="1.0" encoding="UTF-8"?> <svg xmlns="http://www.w3.org/2000/svg" id="outsourcing" width="22.599" height="22.6" viewBox="0 0 22.599 22.6"><defs><style> .cls-1{fill:#707070} </style></defs><g id="Grupo_444" data-name="Grupo 444" transform="translate(0 13.56)"><g id="Grupo_443" data-name="Grupo 443"><path id="Trazado_250" d="M22.223 288h-2.26a.377.377 0 0 0-.377.377h-1.13a.377.377 0 0 0-.377.377v.068l-1.526.305-3.855-.373a.376.376 0 0 0-.261.073l-.788.587-.895-.6a.376.376 0 0 0-.243-.063l-4.1.372-1.9-.315v-.058a.377.377 0 0 0-.377-.377H3.013a.377.377 0 0 0-.376-.373H.377a.377.377 0 0 0-.377.377v6.78a.377.377 0 0 0 .377.377h2.26a.377.377 0 0 0 .377-.377h1.13a.377.377 0 0 0 .377-.377h1.433l5.582 2.233a.379.379 0 0 0 .239.014l4.143-1.13a.371.371 0 0 0 .265-.452v-.011l1.921-.539a.373.373 0 0 0 .355.263h1.13a.377.377 0 0 0 .377.377h2.26a.377.377 0 0 0 .377-.377v-6.78a.377.377 0 0 0-.38-.378zM2.26 294.78H.753v-6.027H2.26zm1.507-.377h-.754v-5.273h.753zm7.932 1.863l-5.532-2.213a.381.381 0 0 0-.14-.027H4.52v-4.452l1.821.3a.394.394 0 0 0 .1 0l4.011-.365.56.373-1.017.756a1.288 1.288 0 0 0 .712 2.363 1.327 1.327 0 0 0 .738-.226l.219-.165 3.355 2.745zm6.378-2.149l-2.528.709-3.269-2.677.61-.459-.452-.6-1.431 1.078a.537.537 0 0 1-.833-.5.547.547 0 0 1 .252-.405l2.345-1.743 3.765.365a.388.388 0 0 0 .11-.006l1.431-.286zm1.51.285h-.753v-5.272h.753zm2.26.377H20.34v-6.027h1.507z" class="cls-1" data-name="Trazado 250" transform="translate(0 -288)"></path></g></g><g id="Grupo_446" data-name="Grupo 446" transform="translate(5.504 20.746)"><g id="Grupo_445" data-name="Grupo 445"><path id="Rectángulo_1319" d="M0 0h.753v2.869H0z" class="cls-1" data-name="Rectángulo 1319" transform="rotate(-66.791 .525 .346)"></path></g></g><g id="Grupo_448" data-name="Grupo 448"><g id="Grupo_447" data-name="Grupo 447"><path id="Trazado_251" d="M8.663 5.273h-3.39v-2.26a.377.377 0 0 0-.373-.376H3.767V1.13A.377.377 0 0 0 3.39.753h-.377V0H2.26v.753h-.377a.377.377 0 0 0-.377.377v1.507H.377A.377.377 0 0 0 0 3.013v9.417a.377.377 0 0 0 .377.377h8.286a.377.377 0 0 0 .377-.377V5.65a.377.377 0 0 0-.377-.377zM2.26 1.507h.753v1.13H2.26zm2.26 10.546H.753V3.39H4.52zM8.286 6.78h-.753v.753h.753v.753h-.753v.754h.753v3.013H5.273V6.027h3.013z" class="cls-1" data-name="Trazado 251"></path></g></g><g id="Grupo_450" data-name="Grupo 450" transform="translate(1.507 5.65)"><g id="Grupo_449" data-name="Grupo 449"><path id="Rectángulo_1320" d="M0 0h.753v.753H0z" class="cls-1" data-name="Rectángulo 1320"></path></g></g><g id="Grupo_452" data-name="Grupo 452" transform="translate(3.013 5.65)"><g id="Grupo_451" data-name="Grupo 451"><path id="Rectángulo_1321" d="M0 0h.753v.753H0z" class="cls-1" data-name="Rectángulo 1321"></path></g></g><g id="Grupo_454" data-name="Grupo 454" transform="translate(1.507 7.156)"><g id="Grupo_453" data-name="Grupo 453"><path id="Rectángulo_1322" d="M0 0h.753v.753H0z" class="cls-1" data-name="Rectángulo 1322"></path></g></g><g id="Grupo_456" data-name="Grupo 456" transform="translate(3.013 7.156)"><g id="Grupo_455" data-name="Grupo 455"><path id="Rectángulo_1323" d="M0 0h.753v.753H0z" class="cls-1" data-name="Rectángulo 1323"></path></g></g><g id="Grupo_458" data-name="Grupo 458" transform="translate(1.507 8.663)"><g id="Grupo_457" data-name="Grupo 457"><path id="Rectángulo_1324" d="M0 0h.753v.753H0z" class="cls-1" data-name="Rectángulo 1324"></path></g></g><g id="Grupo_460" data-name="Grupo 460" transform="translate(6.027 6.78)"><g id="Grupo_459" data-name="Grupo 459"><path id="Rectángulo_1325" d="M0 0h.753v.753H0z" class="cls-1" data-name="Rectángulo 1325"></path></g></g><g id="Grupo_462" data-name="Grupo 462" transform="translate(6.027 8.286)"><g id="Grupo_461" data-name="Grupo 461"><path id="Rectángulo_1326" d="M0 0h.753v.753H0z" class="cls-1" data-name="Rectángulo 1326"></path></g></g><g id="Grupo_464" data-name="Grupo 464" transform="translate(1.507 4.143)"><g id="Grupo_463" data-name="Grupo 463"><path id="Rectángulo_1327" d="M0 0h.753v.753H0z" class="cls-1" data-name="Rectángulo 1327"></path></g></g><g id="Grupo_466" data-name="Grupo 466" transform="translate(3.013 4.143)"><g id="Grupo_465" data-name="Grupo 465"><path id="Rectángulo_1328" d="M0 0h.753v.753H0z" class="cls-1" data-name="Rectángulo 1328"></path></g></g><g id="Grupo_468" data-name="Grupo 468" transform="translate(14.313)"><g id="Grupo_467" data-name="Grupo 467"><path id="Trazado_252" d="M305.883 0v.565a.565.565 0 0 1-.565.565A1.318 1.318 0 0 0 304 2.448v.565h.753v-.565a.565.565 0 0 1 .565-.565 1.318 1.318 0 0 0 1.319-1.318V0z" class="cls-1" data-name="Trazado 252" transform="translate(-304)"></path></g></g><g id="Grupo_470" data-name="Grupo 470" transform="translate(13.56 .753)"><g id="Grupo_469" data-name="Grupo 469"><path id="Trazado_253" d="M296.908 23.624l-2.637-2.26a.377.377 0 0 0-.622.286v.8l-1.261-1.081a.377.377 0 0 0-.622.286v1.883h-.753v-3.771h.377v-.753h-.272a.751.751 0 0 1 .649-.377 1.886 1.886 0 0 0 1.883-1.883V16h-.75v.753a1.13 1.13 0 0 1-1.13 1.13 1.507 1.507 0 0 0-1.453 1.13h-1.937v.753h.377v3.767h-.377a.377.377 0 0 0-.377.377v3.767a.377.377 0 0 0 .377.377h8.286a.377.377 0 0 0 .377-.377V23.91a.377.377 0 0 0-.135-.286zm-7.4-3.857h.753v3.767h-.753zm6.78 7.533h-7.533v-3.014h3.39a.377.377 0 0 0 .377-.377v-1.44l1.261 1.081a.377.377 0 0 0 .622-.286v-.8l1.883 1.614z" class="cls-1" data-name="Trazado 253" transform="translate(-288 -16)"></path></g></g><g id="Grupo_472" data-name="Grupo 472" transform="translate(18.833 10.546)"><g id="Grupo_471" data-name="Grupo 471"><path id="Rectángulo_1329" d="M0 0h.753v.753H0z" class="cls-1" data-name="Rectángulo 1329"></path></g></g><g id="Grupo_474" data-name="Grupo 474" transform="translate(20.34 10.546)"><g id="Grupo_473" data-name="Grupo 473"><path id="Rectángulo_1330" d="M0 0h.753v.753H0z" class="cls-1" data-name="Rectángulo 1330"></path></g></g><g id="Grupo_476" data-name="Grupo 476" transform="translate(18.833 9.04)"><g id="Grupo_475" data-name="Grupo 475"><path id="Rectángulo_1331" d="M0 0h.753v.753H0z" class="cls-1" data-name="Rectángulo 1331"></path></g></g><g id="Grupo_478" data-name="Grupo 478" transform="translate(20.34 9.04)"><g id="Grupo_477" data-name="Grupo 477"><path id="Rectángulo_1332" d="M0 0h.753v.753H0z" class="cls-1" data-name="Rectángulo 1332"></path></g></g><g id="Grupo_480" data-name="Grupo 480" transform="translate(15.066 9.793)"><g id="Grupo_479" data-name="Grupo 479"><path id="Rectángulo_1333" d="M0 0h.753v.753H0z" class="cls-1" data-name="Rectángulo 1333"></path></g></g><g id="Grupo_482" data-name="Grupo 482" transform="translate(16.573 9.793)"><g id="Grupo_481" data-name="Grupo 481"><path id="Rectángulo_1334" d="M0 0h.753v.753H0z" class="cls-1" data-name="Rectángulo 1334"></path></g></g><g id="Grupo_484" data-name="Grupo 484" transform="translate(10.17 8.663)"><g id="Grupo_483" data-name="Grupo 483"><path id="Trazado_254" d="M217.507 184.753V184h-.753v.753H216v.753h.753v.753h.753v-.753h.753v-.753z" class="cls-1" data-name="Trazado 254" transform="translate(-216 -184)"></path></g></g></svg> 